<svg width="18" height="18" viewBox="0 0 18 18" fill="none" xmlns="http://www.w3.org/2000/svg">
	<g clip-path="url(#clip0_219_315)">
		<path
			d="M15.2378 3.27735C14.0708 2.74167 12.8392 2.35968 11.5739 2.14095C11.5624 2.13881 11.5506 2.14034 11.54 2.14534C11.5294 2.15033 11.5207 2.15853 11.5151 2.16877C11.3568 2.45025 11.1815 2.81737 11.0588 3.1059C9.6753 2.89875 8.29883 2.89875 6.94373 3.1059C6.82103 2.81092 6.63938 2.45025 6.48045 2.16877C6.47457 2.15877 6.4658 2.15077 6.4553 2.14582C6.44479 2.14087 6.43304 2.1392 6.42158 2.14102C5.15616 2.35925 3.92452 2.74121 2.75768 3.27727C2.7477 3.28154 2.73928 3.2888 2.7336 3.29805C0.400053 6.78435 -0.239247 10.1849 0.074403 13.5434C0.0752898 13.5516 0.0778179 13.5595 0.0818373 13.5668C0.0858568 13.574 0.0912859 13.5803 0.097803 13.5854C1.6374 14.7161 3.12878 15.4025 4.59248 15.8575C4.60386 15.8609 4.61601 15.8607 4.62729 15.857C4.63858 15.8533 4.64847 15.8462 4.65563 15.8368C5.00183 15.364 5.31045 14.8654 5.57513 14.3411C5.57877 14.3339 5.58084 14.3261 5.58122 14.318C5.5816 14.31 5.58027 14.302 5.57732 14.2945C5.57438 14.287 5.56988 14.2802 5.56412 14.2746C5.55836 14.269 5.55148 14.2646 5.54393 14.2619C5.05433 14.0762 4.5882 13.8497 4.13978 13.5926C4.1316 13.5878 4.12473 13.5811 4.11978 13.573C4.11482 13.5649 4.11194 13.5557 4.11137 13.5463C4.11081 13.5368 4.11259 13.5273 4.11655 13.5187C4.12051 13.5101 4.12653 13.5026 4.13408 13.4969C4.22843 13.4261 4.32285 13.3526 4.41293 13.2783C4.42093 13.2717 4.43062 13.2675 4.44091 13.2661C4.45119 13.2647 4.46166 13.2662 4.47113 13.2704C7.41698 14.6154 10.6061 14.6154 13.5172 13.2704C13.5267 13.2659 13.5372 13.2642 13.5476 13.2655C13.5581 13.2667 13.5679 13.2709 13.5761 13.2775C13.6662 13.3518 13.7606 13.4261 13.8557 13.4969C13.8632 13.5025 13.8693 13.51 13.8733 13.5186C13.8773 13.5271 13.8791 13.5366 13.8787 13.546C13.8782 13.5555 13.8754 13.5647 13.8705 13.5728C13.8656 13.5809 13.8588 13.5877 13.8507 13.5925C13.4021 13.8546 12.9322 14.0782 12.446 14.2611C12.4384 14.264 12.4315 14.2684 12.4258 14.2742C12.4201 14.2799 12.4157 14.2867 12.4128 14.2943C12.4099 14.3018 12.4087 14.3099 12.4091 14.318C12.4096 14.3261 12.4117 14.3339 12.4154 14.3411C12.6857 14.8646 12.9944 15.3632 13.3342 15.836C13.3411 15.8458 13.351 15.8531 13.3623 15.8569C13.3736 15.8608 13.3859 15.861 13.3973 15.8575C14.8681 15.4024 16.3595 14.716 17.8991 13.5854C17.9057 13.5806 17.9112 13.5744 17.9153 13.5673C17.9193 13.5601 17.9218 13.5522 17.9225 13.544C18.2978 9.66127 17.2939 6.2886 15.2612 3.29872C15.2562 3.28901 15.2479 3.28148 15.2378 3.27735ZM6.015 11.4984C5.12813 11.4984 4.39733 10.6841 4.39733 9.68415C4.39733 8.68425 5.11395 7.86998 6.01508 7.86998C6.92318 7.86998 7.64685 8.69137 7.63268 9.68423C7.63268 10.6841 6.91605 11.4984 6.015 11.4984ZM11.9961 11.4984C11.1092 11.4984 10.3784 10.6841 10.3784 9.68415C10.3784 8.68425 11.095 7.86998 11.9961 7.86998C12.9042 7.86998 13.6279 8.69137 13.6137 9.68423C13.6137 10.6841 12.9042 11.4984 11.9961 11.4984Z"
			fill="currentColor" />
	</g>
	<defs>
		<clipPath id="clip0_219_315">
			<rect width="18" height="18" fill="white" />
		</clipPath>
	</defs>
</svg>