<svg width="18" height="18" viewBox="0 0 18 18" fill="currentColor" xmlns="http://www.w3.org/2000/svg"><path d="M9 0.222752C4.0275 0.222752 0 4.2525 0 9.22275C0 13.2 2.5785 16.5728 6.15375 17.7615C6.60375 17.8463 6.76875 17.568 6.76875 17.3288C6.76875 17.115 6.76125 16.5488 6.7575 15.7988C4.254 16.3418 3.726 14.5913 3.726 14.5913C3.3165 13.5525 2.72475 13.275 2.72475 13.275C1.9095 12.717 2.78775 12.7283 2.78775 12.7283C3.6915 12.7913 4.16625 13.6553 4.16625 13.6553C4.96875 15.0315 6.273 14.634 6.7875 14.4038C6.8685 13.8218 7.10025 13.425 7.3575 13.2C5.35875 12.975 3.258 12.201 3.258 8.7525C3.258 7.77 3.60675 6.9675 4.18425 6.3375C4.083 6.11025 3.77925 5.19525 4.263 3.9555C4.263 3.9555 5.01675 3.714 6.738 4.878C7.458 4.67775 8.223 4.57875 8.988 4.57425C9.753 4.57875 10.518 4.67775 11.238 4.878C12.948 3.714 13.7017 3.9555 13.7017 3.9555C14.1855 5.19525 13.8818 6.11025 13.7917 6.3375C14.3655 6.9675 14.7142 7.77 14.7142 8.7525C14.7142 12.21 12.6105 12.9713 10.608 13.1925C10.923 13.4625 11.2155 14.0145 11.2155 14.8575C11.2155 16.062 11.2043 17.0295 11.2043 17.322C11.2043 17.5583 11.3617 17.8395 11.823 17.7495C15.4237 16.569 18 13.194 18 9.22275C18 4.2525 13.9703 0.222752 9 0.222752Z"></path></svg>