<svg width="18" height="18" viewBox="0 0 18 18" fill="none" xmlns="http://www.w3.org/2000/svg">
	<g clip-path="url(#clip0_219_311)">
		<path
			d="M5.27256 0.0630126C4.31496 0.108163 3.66104 0.261013 3.08931 0.485563C2.49771 0.716188 1.99619 1.02556 1.49721 1.52634C0.998311 2.02711 0.690961 2.52894 0.462061 3.12159C0.240511 3.69444 0.0903612 4.34896 0.0480612 5.30709C0.00576119 6.26521 -0.00361381 6.57324 0.00111119 9.01734C0.00576119 11.4613 0.0165612 11.7677 0.0629862 12.7278C0.108736 13.6852 0.260986 14.339 0.485611 14.9108C0.716611 15.5025 1.02561 16.0038 1.52661 16.5029C2.02754 17.0021 2.52899 17.3087 3.12299 17.5379C3.69539 17.7592 4.35006 17.91 5.30804 17.9519C6.26601 17.9939 6.57434 18.0037 9.01769 17.999C11.461 17.9943 11.7687 17.9834 12.7285 17.9379C13.6885 17.8924 14.3388 17.739 14.9109 17.5154C15.5026 17.284 16.0042 16.9754 16.503 16.4744C17.0017 15.9732 17.3089 15.471 17.5376 14.8781C17.7594 14.3057 17.9101 13.6511 17.9516 12.6938C17.9936 11.7331 18.0035 11.4264 17.9989 8.98276C17.9941 6.53904 17.9831 6.23266 17.9376 5.27289C17.8921 4.31311 17.7396 3.66136 17.5151 3.08911C17.2838 2.49744 16.9751 1.99651 16.4744 1.49701C15.9736 0.997513 15.471 0.690613 14.8783 0.462388C14.3055 0.240763 13.6513 0.0897876 12.6933 0.0483876C11.7353 0.00698759 11.427 -0.00373741 8.98274 0.00106259C6.53849 0.00571259 6.23249 0.0162126 5.27256 0.0630126ZM5.37771 16.3328C4.50021 16.2947 4.02374 16.1489 3.70619 16.0268C3.28574 15.8648 2.98619 15.669 2.66976 15.3556C2.35326 15.0422 2.15894 14.7416 1.99476 14.3221C1.87146 14.0045 1.72296 13.5286 1.68194 12.6511C1.63731 11.7027 1.62794 11.4179 1.62269 9.01509C1.61744 6.61231 1.62666 6.32784 1.66821 5.37909C1.70571 4.50234 1.85241 4.02534 1.97421 3.70794C2.13621 3.28696 2.33136 2.98794 2.64546 2.67174C2.95956 2.35546 3.25926 2.16069 3.67919 1.99651C3.99644 1.87269 4.47231 1.72546 5.34944 1.68369C6.29856 1.63869 6.58296 1.62969 8.98544 1.62444C11.3879 1.61919 11.6731 1.62819 12.6226 1.67004C13.4993 1.70814 13.9765 1.85341 14.2936 1.97604C14.7142 2.13804 15.0136 2.33259 15.3298 2.64729C15.646 2.96184 15.841 3.26049 16.0051 3.68131C16.1291 3.99759 16.2764 4.47331 16.3178 5.35104C16.363 6.30016 16.3732 6.58479 16.3775 8.98704C16.3819 11.3893 16.3734 11.6746 16.3318 12.623C16.2935 13.5005 16.148 13.9772 16.0258 14.2951C15.8638 14.7154 15.6685 15.0151 15.3542 15.3311C15.04 15.6473 14.7406 15.842 14.3205 16.0061C14.0037 16.1298 13.5272 16.2774 12.6508 16.3192C11.7016 16.3638 11.4172 16.3732 9.01386 16.3784C6.61049 16.3837 6.32684 16.3739 5.37771 16.3328ZM12.7147 4.18981C12.7151 4.40344 12.7788 4.61215 12.8978 4.78957C13.0168 4.96699 13.1857 5.10513 13.3832 5.18653C13.5807 5.26793 13.7979 5.28893 14.0074 5.24687C14.2168 5.20481 14.4091 5.10159 14.5598 4.95025C14.7106 4.79891 14.8131 4.60626 14.8544 4.39667C14.8957 4.18707 14.8738 3.96994 14.7917 3.77274C14.7096 3.57554 14.5708 3.40713 14.3929 3.28881C14.2151 3.17049 14.0061 3.10757 13.7925 3.10801C13.5061 3.10861 13.2317 3.2229 13.0296 3.42577C12.8275 3.62863 12.7143 3.90346 12.7147 4.18981ZM4.37886 9.00901C4.38389 11.5614 6.45681 13.6258 9.00861 13.621C11.5606 13.6161 13.6264 11.5434 13.6216 8.99101C13.6167 6.43861 11.5433 4.37364 8.99106 4.37866C6.43881 4.38369 4.37406 6.45691 4.37886 9.00901ZM5.99999 9.00579C5.99882 8.41245 6.17362 7.83209 6.50228 7.33809C6.83095 6.8441 7.29872 6.45866 7.84644 6.23051C8.39417 6.00236 8.99724 5.94176 9.57941 6.05636C10.1616 6.17096 10.6967 6.45562 11.1171 6.87434C11.5375 7.29306 11.8243 7.82703 11.9412 8.40874C12.0581 8.99045 11.9999 9.59376 11.7739 10.1424C11.5479 10.691 11.1644 11.1603 10.6717 11.4909C10.179 11.8216 9.59933 11.9987 9.00599 11.9999C8.612 12.0007 8.22172 11.9239 7.85741 11.7739C7.49311 11.6238 7.16193 11.4035 6.88279 11.1255C6.60365 10.8475 6.38201 10.5172 6.23054 10.1535C6.07907 9.78975 6.00072 9.39977 5.99999 9.00579Z"
			fill="currentColor" />
	</g>
	<defs>
		<clipPath id="clip0_219_311">
			<rect width="18" height="18" fill="white" />
		</clipPath>
	</defs>
</svg>